HIERARCHY
ROOT Hips
{
	OFFSET -0.001795 -0.223333 0.028219
	CHANNELS 6 Xposition Yposition Zposition Zrotation Yrotation Xrotation 
	JOINT LeftUpLeg
	{
		OFFSET 0.069520 -0.091406 -0.006815
		CHANNELS 3 Zrotation Yrotation Xrotation
		JOINT LeftLeg
		{
			OFFSET 0.034277 -0.375199 -0.004496
			CHANNELS 3 Zrotation Yrotation Xrotation
			JOINT LeftFoot
			{
				OFFSET -0.013596 -0.397961 -0.043693
				CHANNELS 3 Zrotation Yrotation Xrotation
				JOINT LeftToe
				{
					OFFSET 0.026358 -0.055791 0.119288
					CHANNELS 3 Zrotation Yrotation Xrotation
					End Site
					{
						OFFSET 0.000000 0.000000 0.000000
					}
				}
			}
		}
	}
	JOINT RightUpLeg
	{
		OFFSET -0.067670 -0.090522 -0.004320
		CHANNELS 3 Zrotation Yrotation Xrotation
		JOINT RightLeg
		{
			OFFSET -0.038290 -0.382569 -0.008850
			CHANNELS 3 Zrotation Yrotation Xrotation
			JOINT RightFoot
			{
				OFFSET 0.015774 -0.398415 -0.042312
				CHANNELS 3 Zrotation Yrotation Xrotation
				JOINT RightToe
				{
					OFFSET -0.025372 -0.048144 0.123348
					CHANNELS 3 Zrotation Yrotation Xrotation
					End Site
					{
						OFFSET 0.000000 0.000000 0.000000
					}
				}
			}
		}
	}
	JOINT Spine
	{
		OFFSET -0.002533 0.108963 -0.026696
		CHANNELS 3 Zrotation Yrotation Xrotation
		JOINT Spine1
		{
			OFFSET 0.005487 0.135180 0.001092
			CHANNELS 3 Zrotation Yrotation Xrotation
			JOINT Spine2
			{
				OFFSET 0.001457 0.052922 0.025425
				CHANNELS 3 Zrotation Yrotation Xrotation
				JOINT Neck
				{
					OFFSET -0.002778 0.213870 -0.042857
					CHANNELS 3 Zrotation Yrotation Xrotation
					JOINT Head
					{
						OFFSET 0.005152 0.064970 0.051349
						CHANNELS 3 Zrotation Yrotation Xrotation
						End Site
						{
							OFFSET 0.000000 0.000000 0.000000
						}
					}
				}
				JOINT LeftShoulder
				{
					OFFSET 0.078845 0.121749 -0.034090
					CHANNELS 3 Zrotation Yrotation Xrotation
					JOINT LeftArm
					{
						OFFSET 0.090977 0.030469 -0.008868
						CHANNELS 3 Zrotation Yrotation Xrotation
						JOINT LeftForeArm
						{
							OFFSET 0.259612 -0.012772 -0.027456
							CHANNELS 3 Zrotation Yrotation Xrotation
							JOINT LeftHand
							{
								OFFSET 0.249234 0.008986 -0.001171
								CHANNELS 3 Zrotation Yrotation Xrotation
								End Site
								{
									OFFSET 0.000000 0.000000 0.000000
								}
							}
						}
					}
				}
				JOINT RightShoulder
				{
					OFFSET -0.081759 0.118833 -0.038615
					CHANNELS 3 Zrotation Yrotation Xrotation
					JOINT RightArm
					{
						OFFSET -0.096012 0.032551 -0.009143
						CHANNELS 3 Zrotation Yrotation Xrotation
						JOINT RightForeArm
						{
							OFFSET -0.253742 -0.013329 -0.021401
							CHANNELS 3 Zrotation Yrotation Xrotation
							JOINT RightHand
							{
								OFFSET -0.255298 0.007772 -0.005559
								CHANNELS 3 Zrotation Yrotation Xrotation
								End Site
								{
									OFFSET 0.000000 0.000000 0.000000
								}
							}
						}
					}
				}
			}
		}
	}
}
MOTION
Frames: 17
Frame Time: 0.050000
-0.136090 0.866743 1.062319 -1.756257 -15.987956 3.385612 4.509997 0.523642 -43.019802 2.206676 -0.400016 35.136653 -5.495633 -9.474190 3.338631 0.000000 0.000000 0.000000 4.280738 0.743191 -7.158895 1.946783 2.745357 34.552831 -9.204672 -14.668858 -22.466410 0.000000 0.000000 0.000000 -1.248111 -0.086348 14.895693 -1.365992 0.559331 -3.150321 3.097475 5.593864 6.315509 4.131208 -0.668805 -26.110051 0.000000 0.000000 0.000000 -13.096305 -14.332350 6.330730 -44.630933 -36.962509 8.435478 71.720504 -84.653807 -60.461628 0.000000 0.000000 0.000000 11.865412 23.210093 9.268213 40.921969 43.870439 10.755727 -5.241218 68.030887 -1.464210 0.000000 0.000000 0.000000 
-0.131327 0.855352 1.095100 -1.247907 -14.855598 4.132836 1.737335 -0.760991 -44.168309 3.937507 -1.292123 37.791984 -5.337320 -10.668326 0.590328 0.000000 0.000000 0.000000 3.500329 0.676027 -6.791607 3.015119 2.560030 37.521829 -9.419134 -16.160296 -23.814014 0.000000 0.000000 0.000000 -1.473092 -0.082403 13.979386 -1.607076 0.731798 -1.359717 2.910986 5.985585 5.390250 4.976999 -1.041347 -25.126466 0.000000 0.000000 0.000000 -13.179816 -15.426535 6.650836 -43.930015 -38.095177 8.795609 64.688260 -83.897347 -53.645671 0.000000 0.000000 0.000000 12.479136 23.769615 9.865822 39.071948 43.638323 10.129802 -10.822368 66.792417 -4.776902 0.000000 0.000000 0.000000 
-0.127046 0.855419 1.133814 -0.761356 -15.149349 4.549225 0.900864 -1.086081 -43.380945 3.340086 -0.929715 38.549636 -3.661753 -7.864837 -0.596706 0.000000 0.000000 0.000000 2.788030 0.456352 -5.225791 1.603164 3.319414 38.381265 -9.104922 -14.834898 -22.932396 0.000000 0.000000 0.000000 -2.249005 0.013004 11.762039 -1.945969 0.888456 -1.325398 3.633025 6.910956 6.979546 3.925603 -0.414872 -25.771014 0.000000 0.000000 0.000000 -13.396765 -15.336587 6.561698 -45.106573 -37.559140 8.736474 52.261127 -85.079326 -42.849681 0.000000 0.000000 0.000000 11.816338 24.253002 10.163821 39.533294 42.421712 9.740666 -12.861596 66.973266 -5.888041 0.000000 0.000000 0.000000 
-0.124601 0.866710 1.176617 0.017659 -14.344244 5.357550 -0.574806 -1.844725 -40.370749 2.986733 -0.847046 36.199912 -3.562198 -8.075914 -1.306630 0.000000 0.000000 0.000000 2.294455 0.614395 -6.481939 1.537607 3.626599 41.141700 -8.108443 -14.509792 -16.450128 0.000000 0.000000 0.000000 -3.357086 0.129281 9.482579 -1.618212 0.735255 -1.501011 3.880412 5.411796 7.847950 4.336520 -0.804540 -25.530229 0.000000 0.000000 0.000000 -12.971074 -14.337744 6.319725 -47.656121 -35.704723 8.527692 38.626616 -86.791272 -30.234223 0.000000 0.000000 0.000000 12.394910 23.918371 9.862606 41.409365 40.690135 9.631978 -3.931962 68.114700 -0.322643 0.000000 0.000000 0.000000 
-0.124413 0.883528 1.220034 1.064769 -14.796878 5.187111 -1.412564 -2.050354 -35.121497 1.221677 -0.015709 32.461269 -3.406004 -7.838613 -1.503468 0.000000 0.000000 0.000000 0.039507 1.064770 -10.415759 4.071927 3.770777 50.442784 -6.153210 -13.951994 -3.346772 0.000000 0.000000 0.000000 -5.625985 0.365851 7.632563 -0.620502 0.293491 -0.998284 3.976870 5.169806 7.968667 3.864963 -0.692996 -24.835581 0.000000 0.000000 0.000000 -13.543723 -13.418445 6.023319 -48.106023 -33.388607 7.550227 -37.887392 -87.085604 42.862169 0.000000 0.000000 0.000000 11.395862 22.559757 8.987646 45.362617 37.467369 9.519417 10.772377 72.738751 10.188762 0.000000 0.000000 0.000000 
-0.126357 0.901259 1.260938 1.305206 -14.683703 5.381714 -1.690125 -2.038483 -29.546406 -0.062507 0.334085 27.224887 -2.900930 -7.007455 -1.991285 0.000000 0.000000 0.000000 -1.599229 1.710659 -16.408739 8.088519 2.352750 59.913979 -5.463056 -15.284760 7.807094 0.000000 0.000000 0.000000 -6.041570 0.393408 6.784614 -0.187610 0.083614 -1.728314 3.728710 3.091394 8.709993 3.587979 -0.792424 -25.113302 0.000000 0.000000 0.000000 -13.697393 -11.818158 5.683403 -48.274628 -30.921480 6.398767 -76.393321 -84.782616 79.254217 0.000000 0.000000 0.000000 10.030612 20.121839 7.358439 50.587523 34.234933 9.334898 41.859094 75.181359 34.266328 0.000000 0.000000 0.000000 
-0.130494 0.915084 1.298949 0.997362 -13.557160 4.743866 -2.213105 -2.000057 -23.703421 0.231151 0.009940 22.872773 -3.115571 -7.658025 -2.243917 0.000000 0.000000 0.000000 -2.044870 2.399420 -22.252540 12.157708 -0.788075 63.523555 -7.624691 -19.602431 9.788573 0.000000 0.000000 0.000000 -5.633181 0.341911 7.437740 0.733454 -0.326927 -1.518388 2.772728 0.271340 8.237651 3.602296 -1.078412 -24.729364 0.000000 0.000000 0.000000 -13.766043 -10.305611 5.332813 -47.398077 -29.079599 5.420089 -86.334111 -83.626151 88.843012 0.000000 0.000000 0.000000 9.550481 18.459230 6.213697 53.381995 30.554973 8.178441 63.754662 73.985606 50.448542 0.000000 0.000000 0.000000 
-0.136279 0.923641 1.334883 0.261622 -14.075876 3.843443 -2.255030 -1.626567 -17.483474 0.923071 -0.266712 18.533485 -1.566263 -4.724002 -3.583196 0.000000 0.000000 0.000000 -1.952158 3.125464 -27.039676 13.582647 -1.804280 60.853041 -9.280714 -22.776166 6.258594 0.000000 0.000000 0.000000 -5.111353 0.295340 8.423774 1.358109 -0.613035 -1.900862 2.315427 -0.630397 9.034702 3.178985 -1.016086 -24.827555 0.000000 0.000000 0.000000 -13.927869 -9.302265 5.078702 -47.761225 -27.918957 4.875117 -87.693139 -82.934665 90.133011 0.000000 0.000000 0.000000 10.550818 17.199817 5.452722 53.351258 26.858942 6.402684 76.555304 72.739194 59.803419 0.000000 0.000000 0.000000 
-0.143000 0.927590 1.368453 -0.377122 -13.812983 3.738731 -2.162380 -1.266589 -12.726878 0.742561 -0.261250 15.598376 -0.443910 -2.728145 -5.241645 0.000000 0.000000 0.000000 -1.443617 3.845492 -30.947620 12.340319 -1.434060 51.433688 -9.711375 -23.834814 2.713292 0.000000 0.000000 0.000000 -4.478691 0.220355 8.672776 1.472357 -0.666016 -0.991711 2.314086 -2.392392 8.769117 2.665038 -0.914944 -25.149855 0.000000 0.000000 0.000000 -14.469914 -8.284128 4.950198 -48.420469 -28.997610 5.433810 -87.117147 -83.921349 91.367198 0.000000 0.000000 0.000000 9.812832 16.014358 4.659721 53.983090 23.446107 4.873000 86.103624 71.226712 65.822496 0.000000 0.000000 0.000000 
-0.150911 0.926742 1.400488 0.013968 -13.791547 3.197600 -3.350866 -0.995616 -8.595803 1.380084 -0.437441 13.448352 0.730860 -0.286767 -6.683231 0.000000 0.000000 0.000000 -1.303995 4.199065 -32.797487 9.268490 -0.376297 39.441402 -8.407934 -20.902691 0.377199 0.000000 0.000000 0.000000 -4.756166 0.282365 10.123506 1.974360 -0.890927 -1.830898 2.018027 -3.519516 8.948276 1.998167 -0.671381 -25.920876 0.000000 0.000000 0.000000 -14.513284 -8.086680 5.083311 -49.119156 -29.640495 5.851485 -97.608893 -85.068570 103.735424 0.000000 0.000000 0.000000 9.620784 15.557787 4.282546 53.450638 21.549222 3.924414 91.940112 71.738129 71.063388 0.000000 0.000000 0.000000 
-0.160816 0.923051 1.433581 0.344652 -14.505486 3.503889 -4.200232 -0.727997 -5.763881 1.761455 -0.505989 12.050354 1.457824 1.425141 -7.642738 0.000000 0.000000 0.000000 -0.452222 4.820314 -34.606581 4.718088 0.657911 26.978280 -6.622156 -17.426771 2.965334 0.000000 0.000000 0.000000 -4.192947 0.222399 9.952163 2.154395 -0.974020 -1.170706 0.872039 -3.679975 7.836360 2.394715 -0.899759 -25.505474 0.000000 0.000000 0.000000 -14.373640 -7.559789 4.830718 -51.742901 -30.308745 6.885874 -97.163144 -84.406967 102.834187 0.000000 0.000000 0.000000 10.044846 14.202784 3.586550 53.338627 19.389704 3.105587 98.699854 69.595264 74.757940 0.000000 0.000000 0.000000 
-0.173372 0.918240 1.469648 1.183141 -13.932585 2.909398 -5.181907 -0.445522 -3.293165 2.905767 -0.806792 13.268587 1.965370 2.209317 -9.579953 0.000000 0.000000 0.000000 -0.010776 4.686189 -33.584452 1.983890 0.922601 20.401684 -5.215190 -15.035177 5.549922 0.000000 0.000000 0.000000 -3.821261 0.161689 9.788077 1.859082 -0.847856 -0.378136 0.095087 -4.006644 6.703325 2.518937 -0.829115 -26.496891 0.000000 0.000000 0.000000 -14.830412 -8.171276 5.116193 -51.888536 -29.924036 6.831327 -105.787447 -82.710749 109.706690 0.000000 0.000000 0.000000 10.761751 13.976517 3.439433 52.638688 18.059397 2.632520 104.673974 69.642234 80.802040 0.000000 0.000000 0.000000 
-0.189463 0.914760 1.509080 1.560459 -13.031399 2.437441 -5.164594 -0.160540 -1.238810 3.675119 -1.068665 15.751414 1.818039 1.830843 -8.881438 0.000000 0.000000 0.000000 0.430358 4.361075 -31.665723 1.668204 1.053888 21.367404 -5.457701 -15.603287 6.271387 0.000000 0.000000 0.000000 -3.113369 0.052709 8.829221 1.934482 -0.892213 0.708232 -0.179291 -4.967546 5.239417 2.383800 -0.896364 -24.595707 0.000000 0.000000 0.000000 -15.315192 -7.201965 4.696185 -53.443799 -28.632162 6.633823 -100.375202 -79.558000 100.983100 0.000000 0.000000 0.000000 11.680772 13.955464 3.225759 52.493025 16.873809 2.348801 102.355981 70.023149 78.443497 0.000000 0.000000 0.000000 
-0.207882 0.916373 1.549321 0.732478 -13.360551 2.686032 -2.980079 -0.247939 -2.003500 2.069494 -0.572600 22.715740 1.720072 1.843973 -7.689114 0.000000 0.000000 0.000000 1.691353 4.425504 -30.345625 1.717296 1.215635 23.144956 -6.028581 -16.606318 5.680196 0.000000 0.000000 0.000000 -1.711778 -0.080931 6.770823 1.416512 -0.642368 1.095424 0.108535 -3.981628 5.255819 2.072931 -0.699227 -24.053491 0.000000 0.000000 0.000000 -17.236376 -6.317250 4.286357 -52.986576 -25.219520 4.677807 -103.291239 -76.159153 100.294700 0.000000 0.000000 0.000000 13.366302 12.801728 2.664687 51.457068 16.055355 2.090436 96.470183 69.345410 72.387991 0.000000 0.000000 0.000000 
-0.226713 0.921217 1.586817 0.104294 -13.575118 2.480825 0.089067 -0.625035 -7.048265 0.432951 0.704480 36.576092 0.469251 -0.355136 -4.202293 0.000000 0.000000 0.000000 3.364344 4.018811 -26.436117 1.612727 1.227873 22.650316 -5.903116 -15.385509 2.419389 0.000000 0.000000 0.000000 -0.608546 -0.163945 6.207788 1.688172 -0.774970 0.096875 0.422035 -2.488094 5.759890 0.861936 0.034120 -23.850440 0.000000 0.000000 0.000000 -19.228720 -4.657449 3.251887 -52.754657 -22.102792 2.998232 -100.372506 -72.000050 92.296807 0.000000 0.000000 0.000000 12.209298 13.123202 3.190126 52.426531 16.960550 2.340466 90.760005 70.235240 68.742530 0.000000 0.000000 0.000000 
-0.243370 0.925495 1.620469 -0.317867 -13.085975 2.250415 1.830817 -0.876147 -14.028154 0.642487 1.359230 48.886192 0.106891 -0.477438 -1.922958 0.000000 0.000000 0.000000 4.687663 3.278118 -21.581340 1.283300 1.113201 20.477278 -6.139716 -14.749677 -0.880723 0.000000 0.000000 0.000000 0.222149 -0.223720 6.014926 1.774876 -0.818075 -0.407734 0.508357 -1.220494 5.985302 1.329013 -0.058163 -23.576120 0.000000 0.000000 0.000000 -20.047420 -4.295059 2.716664 -53.026933 -19.948380 2.009418 -99.585011 -69.164591 87.736268 0.000000 0.000000 0.000000 12.568922 13.362955 3.557646 52.123971 19.250717 3.311503 82.080769 71.034238 62.474305 0.000000 0.000000 0.000000 
-0.258425 0.929553 1.652845 -0.332270 -14.063025 2.022719 1.966611 -1.034673 -20.364674 1.707583 1.250375 53.610593 1.115044 0.793396 -4.626857 0.000000 0.000000 0.000000 5.558479 2.558377 -17.158920 0.805604 1.050708 17.860685 -5.638835 -12.795156 -2.321221 0.000000 0.000000 0.000000 0.100409 -0.217060 6.212618 0.929797 -0.430869 -0.859303 1.351427 1.021416 6.257434 2.353765 -0.414853 -23.526237 0.000000 0.000000 0.000000 -20.003367 -5.278419 2.852968 -51.915497 -18.321322 1.212519 -101.673669 -67.901672 87.702840 0.000000 0.000000 0.000000 13.247132 13.857571 4.082413 49.742281 21.145511 3.899936 81.786547 72.766349 64.855531 0.000000 0.000000 0.000000 
